# xmcd CD database file
#
# Track frame offsets:
#	150
#	20162
#	32105
#	46552
#	63440
#	95320
#	119640
#	137135
#	162462
#	184705
#	201040
#	213922
#
# Disc length: 3183 seconds
#
# Revision: 2
# Processed by: cddbd v1.5.2PL0 Copyright (c) Steve Scherf et al.
# Submitted via: CDex 1.70beta2
#
DISCID=a80c6d0c
DTITLE=Various Artist - MIDNIGHT JAZZ PIANO
DYEAR=1996
DGENRE=Jazz
TTITLE0=Cleopatra'sdream - Bud powell
TTITLE1=What's new - George shearing
TTITLE2='Round midnight - Thelonious monk
TTITLE3=Tonight - Tommy flanagan
TTITLE4=I didn't know what time it was - Mccoy tyner
TTITLE5=My funny valentine - Bill evans
TTITLE6=I should care - Duke jordan
TTITLE7=The sorcerer - Herbie hancock
TTITLE8=I'll remember april - Sonny clark
TTITLE9=My one and only love - Chick corea
TTITLE10=It could happen to you - Nat king cole
TTITLE11=Ballade - Kenny drew
EXTD=YEAR: 1996
EXTT0=
EXTT1=
EXTT2=
EXTT3=
EXTT4=
EXTT5=
EXTT6=
EXTT7=
EXTT8=
EXTT9=
EXTT10=
EXTT11=
PLAYORDER=
